<?xml version="1.0" encoding="iso-8859-1"?>
<!-- Generator: Adobe Illustrator 19.0.0, SVG Export Plug-In . SVG Version: 6.00 Build 0)  -->
<svg version="1.1" id="Capa_1" xmlns="http://www.w3.org/2000/svg" xmlns:xlink="http://www.w3.org/1999/xlink" x="0px" y="0px"
	 viewBox="0 0 490.667 490.667" style="enable-background:new 0 0 490.667 490.667;" xml:space="preserve">
<g>
	<g>
		<circle cx="245.333" cy="106.667" r="53.333"/>
	</g>
</g>
<g>
	<g>
		<path d="M210.197,99.136c-4.16-4.16-10.923-4.16-15.083,0L88.448,205.803c-4.16,4.16-4.16,10.923,0,15.083
			C90.539,222.955,93.269,224,96,224s5.461-1.045,7.531-3.115l106.667-106.667C214.357,110.059,214.357,103.296,210.197,99.136z"/>
	</g>
</g>
<g>
	<g>
		<path d="M402.197,205.803L295.531,99.136c-4.16-4.16-10.923-4.16-15.083,0c-4.16,4.16-4.16,10.923,0,15.083l106.667,106.667
			c2.091,2.069,4.821,3.115,7.552,3.115c2.731,0,5.461-1.045,7.531-3.115C406.357,216.725,406.357,209.963,402.197,205.803z"/>
	</g>
</g>
<g>
	<g>
		<path d="M160,288c-5.888,0-10.667,4.779-10.667,10.667v42.667c0,5.888,4.779,10.667,10.667,10.667s10.667-4.779,10.667-10.667
			v-42.667C170.667,292.779,165.888,288,160,288z"/>
	</g>
</g>
<g>
	<g>
		<path d="M437.333,202.667h-384C23.936,202.667,0,226.603,0,256v128c0,29.397,23.936,53.333,53.333,53.333h384
			c29.397,0,53.333-23.936,53.333-53.333V256C490.667,226.603,466.731,202.667,437.333,202.667z M106.667,362.667
			c0,5.888-4.779,10.667-10.667,10.667s-10.667-4.779-10.667-10.667v-32H64v32c0,5.888-4.779,10.667-10.667,10.667
			s-10.667-4.779-10.667-10.667v-85.333c0-5.888,4.779-10.667,10.667-10.667S64,271.445,64,277.333v32h21.333v-32
			c0-5.888,4.779-10.667,10.667-10.667s10.667,4.779,10.667,10.667V362.667z M192,341.333c0,17.643-14.357,32-32,32
			c-17.643,0-32-14.357-32-32v-42.667c0-17.643,14.357-32,32-32c17.643,0,32,14.357,32,32V341.333z M277.333,288H256v74.667
			c0,5.888-4.779,10.667-10.667,10.667s-10.667-4.779-10.667-10.667V288h-21.333c-5.888,0-10.667-4.779-10.667-10.667
			s4.779-10.667,10.667-10.667h64c5.888,0,10.667,4.779,10.667,10.667S283.221,288,277.333,288z M330.667,309.333
			c5.888,0,10.667,4.779,10.667,10.667s-4.779,10.667-10.667,10.667H320V352h32c5.888,0,10.667,4.779,10.667,10.667
			c0,5.888-4.779,10.667-10.667,10.667h-42.667c-5.888,0-10.667-4.779-10.667-10.667v-85.333c0-5.888,4.779-10.667,10.667-10.667
			H352c5.888,0,10.667,4.779,10.667,10.667S357.888,288,352,288h-32v21.333H330.667z M437.333,373.333h-42.667
			c-5.888,0-10.667-4.779-10.667-10.667v-85.333c0-5.888,4.779-10.667,10.667-10.667c5.888,0,10.667,4.779,10.667,10.667V352h32
			c5.888,0,10.667,4.779,10.667,10.667C448,368.555,443.221,373.333,437.333,373.333z"/>
	</g>
</g>
<g>
</g>
<g>
</g>
<g>
</g>
<g>
</g>
<g>
</g>
<g>
</g>
<g>
</g>
<g>
</g>
<g>
</g>
<g>
</g>
<g>
</g>
<g>
</g>
<g>
</g>
<g>
</g>
<g>
</g>
</svg>
